<svg width="100" height="100" viewBox="0 0 100 100" fill="none" xmlns="http://www.w3.org/2000/svg">
<path d="M54.1929 12.87C53.4619 12.87 52.8679 13.464 52.8679 14.196C52.8679 14.264 52.8969 14.323 52.9069 14.389H52.8679V45.827C52.8679 46.559 53.4619 47.153 54.1929 47.153H85.6299V47.114C85.6959 47.124 85.7549 47.153 85.8239 47.153C86.5549 47.153 87.1489 46.559 87.1489 45.827C86.9609 27.707 72.3129 13.059 54.1929 12.87Z" fill="black"/>
<path d="M79.4851 53.46C79.4851 52.728 78.8921 52.134 78.1601 52.134H49.2611C48.9096 52.1337 48.5726 51.9939 48.3241 51.7452C48.0756 51.4966 47.9361 51.1595 47.9361 50.808V22.015H47.8971C47.9071 21.949 47.9361 21.89 47.9361 21.822C47.9361 21.089 47.3421 20.496 46.6101 20.496C46.5781 20.496 46.5521 20.512 46.5211 20.514V20.505C46.4031 20.504 46.2861 20.496 46.1681 20.496C27.7681 20.496 12.8511 35.413 12.8511 53.813C12.8511 72.213 27.7681 87.13 46.1681 87.13C64.5681 87.13 79.4851 72.213 79.4851 53.813C79.4851 53.707 79.4801 53.602 79.4781 53.495C79.4781 53.482 79.4851 53.472 79.4851 53.46Z" fill="black"/>
</svg>
